<?xml version="1.0" standalone="no"?>
<!DOCTYPE svg PUBLIC "-//W3C//DTD SVG 20010904//EN"
 "http://www.w3.org/TR/2001/REC-SVG-20010904/DTD/svg10.dtd">
<svg version="1.0" xmlns="http://www.w3.org/2000/svg"
 width="166.000000pt" height="165.000000pt" viewBox="0 0 166.000000 165.000000"
 preserveAspectRatio="xMidYMid meet">

<g transform="translate(0.000000,165.000000) scale(0.100000,-0.100000)"
fill="#fff" stroke="none">
<path d="M765 1409 c-292 -29 -525 -289 -525 -585 1 -369 337 -648 699 -579
193 37 359 171 434 350 140 333 -49 713 -398 799 -77 19 -135 23 -210 15z
m155 -40 c36 -5 92 -22 125 -37 l60 -27 -65 -11 c-57 -11 -76 -9 -173 12 -130
30 -163 42 -151 54 20 19 116 24 204 9z m-65 -97 l110 -28 19 -79 20 -79 -52
-47 c-28 -26 -72 -64 -97 -85 l-46 -37 -100 23 -99 24 -25 80 c-43 140 -43
135 11 181 104 88 100 87 259 47z m-311 -220 c20 -67 24 -97 17 -106 -6 -7
-31 -51 -55 -97 -44 -82 -46 -84 -88 -91 -97 -15 -106 -12 -119 35 -22 75 -16
154 20 237 44 106 56 118 121 128 37 6 59 5 66 -2 6 -6 23 -53 38 -104z m789
1 c33 -83 47 -150 47 -224 0 -76 -17 -179 -30 -179 -3 0 -20 15 -37 33 -28 29
-31 41 -42 138 -6 58 -14 117 -17 130 -4 24 42 139 57 139 4 0 14 -17 22 -37z
m-199 -41 l82 -39 16 -134 16 -134 -62 -57 c-95 -89 -88 -88 -208 -33 -57 26
-108 53 -114 59 -6 6 -16 55 -23 109 -9 78 -9 101 1 110 69 66 181 157 194
157 9 0 53 -17 98 -38z m-628 -339 c21 -27 53 -63 70 -82 29 -31 32 -41 38
-123 3 -50 4 -93 2 -97 -2 -3 -28 -4 -57 -2 -51 3 -57 7 -120 70 -75 75 -116
147 -125 220 -7 57 -6 57 97 60 56 1 57 0 95 -46z m456 -90 l107 -48 1 -66 0
-66 -122 -57 -123 -57 -55 19 c-121 43 -116 36 -119 158 l-2 80 78 34 c43 18
82 37 88 42 16 15 38 9 147 -39z m184 -212 c-7 -11 -99 -56 -155 -76 -80 -28
-89 -15 -16 21 104 52 185 78 171 55z"/>
</g>
</svg>
